Coordinates
version=1
nRows=8
nColumns=36
inDegrees=yes

Units are S.I. units (second, meters, Newtons, ...)
If the header above contains a line with 'inDegrees', this indicates whether rotational values are in degrees (yes) or radians (no).

endheader
time	pelvis_tilt	pelvis_list	pelvis_rotation	pelvis_tx	pelvis_ty	pelvis_tz	hip_flexion_r	hip_adduction_r	hip_rotation_r	knee_angle_r	knee_angle_r_beta	ankle_angle_r	subtalar_angle_r	mtp_angle_r	hip_flexion_l	hip_adduction_l	hip_rotation_l	knee_angle_l	knee_angle_l_beta	ankle_angle_l	subtalar_angle_l	mtp_angle_l	lumbar_extension	lumbar_bending	lumbar_rotation	arm_flex_r	arm_add_r	arm_rot_r	elbow_flex_r	pro_sup_r	arm_flex_l	arm_add_l	arm_rot_l	elbow_flex_l	pro_sup_l
      1.67000000	    -17.80966763	     -4.61374254	      1.68219861	     -0.26425978	      0.69521869	     -0.61202254	     73.26696335	    -10.69349382	      1.71066212	     91.64002654	      1.59942019	     31.86270486	     -5.29924892	     -7.43386945	     74.93835053	     -8.99703488	     11.74904082	     94.03914545	      1.64129271	     31.63756972	     -7.29305644	     -7.43386945	    -30.49085073	      4.79274088	      5.42468515	     77.83712693	    -14.18944313	      5.11848686	    114.61480302	     99.77226089	     67.60030802	    -29.00030541	     14.68796919	    119.58872598	    113.22209817
      1.68000000	    -17.70070428	     -4.88017488	      1.67937872	     -0.25979707	      0.70423305	     -0.61250368	     71.75677437	    -10.56453234	      1.07805518	     90.08634670	      1.57230336	     31.34457670	     -5.29217726	     -7.43437303	     73.61413174	     -9.23782091	     11.72214593	     92.60389066	      1.61624279	     31.20722896	     -7.40191863	     -7.43437303	    -29.30628388	      4.88988569	      5.26076538	     77.70547647	    -15.23237397	      5.47636763	    117.68731034	     99.84400831	     68.42155162	    -30.43551210	     15.36586578	    123.04593787	    113.29446956
      1.69000000	    -17.47858639	     -5.13263299	      1.70049824	     -0.25539430	      0.71429556	     -0.61298880	     70.00923086	    -10.45029460	      0.36349246	     88.28283038	      1.54082606	     30.50227943	     -5.86199792	     -7.43589777	     72.06875370	     -9.46280370	     11.67087221	     90.95394898	      1.58744588	     30.32200236	     -7.92582467	     -7.43589777	    -28.19335146	      4.95414647	      5.01597285	     77.71320969	    -16.28803821	      5.80936442	    120.38516947	     99.61846457	     69.66954831	    -32.27679822	     16.18406055	    125.89855655	    112.81875040
      1.70000000	    -17.31668405	     -5.38990902	      1.73722539	     -0.25074004	      0.72519431	     -0.61379247	     68.16800499	    -10.40953713	     -0.43813452	     86.23301075	      1.50504996	     29.76383274	     -6.08706695	     -7.43781753	     70.48637107	     -9.71762761	     11.51116141	     89.11460250	      1.55534323	     29.56522083	     -8.19032376	     -7.43781753	    -26.84898049	      5.10378932	      4.73178425	     77.45215176	    -17.42470047	      6.29498808	    122.91988526	     99.38035195	     70.65403436	    -33.94678586	     16.39189061	    128.24494047	    112.53802083
      1.71000000	    -17.20803139	     -5.64551085	      1.70484988	     -0.24588241	      0.73690514	     -0.61442600	     66.26639117	    -10.26434126	     -1.22647689	     83.96537981	      1.46547234	     29.23200002	     -5.82912098	     -7.43822402	     68.88366204	    -10.15185571	     11.18939066	     87.11891003	      1.52051182	     29.04920276	     -7.97496310	     -7.43822402	    -25.28341565	      5.23785306	      4.44296224	     76.77435616	    -18.49673419	      7.01869148	    125.00305484	     99.47596196	     71.44601009	    -35.41672519	     16.66047348	    130.33555479	    112.72182811
      1.72000000	    -17.01985633	     -6.04949139	      1.58803618	     -0.24111415	      0.74950018	     -0.61446628	     64.18782928	     -9.81613528	     -2.08582968	     81.44366823	      1.42146017	     28.27866453	     -5.86309697	     -7.43890508	     67.22841571	    -10.86420512	     10.90905754	     84.99827973	      1.48349984	     28.05573797	     -7.87775266	     -7.43890508	    -23.90695199	      5.46064169	      4.27210407	     76.33194683	    -19.62346049	      7.99041445	    126.85722334	     99.46041399	     72.77319612	    -37.12161970	     17.69119650	    132.62682859	    112.93274620
      1.73000000	    -16.92642379	     -6.32671643	      1.42286615	     -0.23588190	      0.76283966	     -0.61464778	     62.15793900	     -9.44153821	     -2.87898272	     78.76842175	      1.37476831	     27.30387527	     -5.71397009	     -7.43931790	     65.47463310	    -11.49624173	     10.44699274	     82.67274468	      1.44291160	     27.10129664	     -7.67143784	     -7.43931790	    -22.10723143	      5.60233095	      4.04942808	     75.17657028	    -20.64187097	      8.90379418	    128.23981130	     99.47532959	     73.33205814	    -38.50152211	     18.74623513	    134.41844600	    113.11072338
      1.74000000	    -16.61513596	     -6.55401209	      1.50785260	     -0.23065399	      0.77743637	     -0.61563668	     59.80915553	     -9.35131218	     -3.79514348	     75.87481083	      1.32426527	     25.22410992	     -6.19375787	     -7.44056112	     63.44535604	    -11.79289035	     10.02185004	     80.11861868	      1.39833369	     24.98125880	     -8.19544752	     -7.44056112	    -20.62383619	      5.74563044	      3.62022063	     74.06057518	    -21.80814622	      9.87151550	    129.38572782	     99.22369793	     74.51475503	    -40.11475131	     20.72729687	    136.02287330	    113.05909480
